<?xml version="1.0" standalone="no"?>
<!DOCTYPE svg PUBLIC "-//W3C//DTD SVG 20010904//EN"
 "http://www.w3.org/TR/2001/REC-SVG-20010904/DTD/svg10.dtd">
<svg version="1.0" xmlns="http://www.w3.org/2000/svg"
 width="1000.000000pt" height="1000.000000pt" viewBox="0 0 1000.000000 1000.000000"
 preserveAspectRatio="xMidYMid meet">
<metadata>
Created by potrace 1.14, written by Peter Selinger 2001-2017
</metadata>
<g transform="translate(0.000000,1000.000000) scale(0.100000,-0.100000)"
fill="#000000" stroke="none">
<path d="M4845 7314 c-426 -27 -751 -77 -1160 -180 -108 -28 -367 -104 -437
-129 -24 -9 -68 -24 -98 -35 -110 -37 -314 -119 -425 -170 -247 -114 -562
-278 -769 -399 -143 -83 -518 -335 -682 -457 -431 -321 -700 -548 -1095 -926
l-176 -168 4 -97 c3 -54 8 -119 11 -144 l7 -47 195 190 c180 175 254 244 475
443 224 202 582 487 815 651 176 124 377 258 454 302 34 19 75 42 91 52 266
155 509 283 745 390 748 341 1636 527 2425 507 507 -13 985 -90 1475 -239 751
-228 1478 -637 2254 -1268 71 -58 143 -116 160 -129 17 -14 49 -40 71 -58 22
-19 47 -39 55 -46 38 -31 172 -146 230 -198 36 -31 133 -114 215 -184 83 -70
161 -137 175 -149 14 -11 48 -40 76 -63 l51 -42 7 67 c3 37 6 101 5 142 l0 75
-57 45 c-52 42 -137 114 -478 405 -220 187 -483 401 -649 525 -47 36 -107 81
-133 101 -68 52 -337 233 -485 328 -266 169 -647 364 -965 493 -513 208 -1029
334 -1602 393 -147 15 -653 27 -785 19z"/>
<path d="M5080 6473 c-108 -20 -249 -74 -338 -130 -66 -42 -211 -179 -252
-238 -49 -71 -97 -168 -128 -260 -119 -347 -7 -747 276 -989 97 -82 165 -124
276 -167 344 -133 759 -37 998 233 114 129 175 238 217 390 64 227 39 454 -74
678 -120 239 -358 417 -634 476 -62 13 -282 17 -341 7z m332 -232 c89 -23 151
-53 242 -116 120 -84 206 -207 257 -365 69 -216 16 -479 -134 -657 -96 -114
-267 -214 -411 -240 -274 -48 -555 70 -704 297 -90 137 -124 249 -124 406 1
326 215 596 537 679 79 21 249 18 337 -4z"/>
<path d="M5149 5701 c-32 -20 -51 -41 -62 -70 -54 -133 30 -250 169 -239 93 8
145 62 152 158 4 53 1 65 -22 101 -53 79 -157 101 -237 50z"/>
<path d="M972 4894 c-17 -16 -46 -50 -64 -76 -18 -25 -75 -101 -126 -168 -130
-168 -145 -214 -99 -295 39 -70 66 -77 262 -71 146 4 409 34 469 52 16 5 18
13 11 63 -4 31 -8 68 -9 83 -6 62 -47 70 -206 44 -47 -8 -116 -17 -155 -21
-38 -3 -82 -8 -97 -11 -27 -5 -39 8 -18 21 5 3 53 62 106 132 82 107 97 132
98 165 1 51 -43 97 -101 105 -34 4 -45 1 -71 -23z"/>
<path d="M8386 4742 c-44 -43 -93 -87 -107 -98 -15 -10 -78 -59 -140 -109
-290 -228 -674 -451 -1054 -612 -77 -33 -156 -65 -175 -72 -19 -7 -44 -17 -55
-22 -48 -20 -270 -90 -378 -118 -207 -55 -402 -91 -742 -138 -96 -13 -204 -17
-540 -17 -454 -1 -545 6 -900 70 -636 113 -1282 362 -1785 688 -127 83 -173
114 -325 227 -93 70 -183 140 -200 155 -16 16 -46 42 -66 57 l-36 27 -56 -59
c-83 -87 -81 -99 40 -206 222 -198 449 -352 838 -570 220 -123 512 -252 750
-330 279 -92 368 -118 499 -145 22 -4 106 -22 186 -39 263 -56 718 -106 943
-105 l57 1 0 -225 0 -225 58 -61 c31 -34 73 -89 92 -124 35 -61 70 -86 91 -65
6 6 30 7 64 1 44 -7 64 -4 108 12 61 23 80 40 101 90 20 51 30 169 16 205 -35
92 -158 141 -253 102 -18 -8 -36 -12 -42 -10 -6 2 -9 59 -8 150 l2 148 178 11
c431 28 845 106 1238 235 166 54 423 153 440 170 5 5 14 9 21 9 20 0 300 139
416 206 61 35 112 64 114 64 6 0 149 92 244 155 235 158 299 209 558 442 94
84 51 203 -75 203 -31 0 -46 -10 -117 -78z m-2828 -1835 c17 -18 25 -96 12
-117 -6 -9 -27 -13 -69 -11 l-61 2 0 -33 c0 -19 5 -39 12 -46 9 -9 7 -12 -8
-12 -25 0 -56 60 -57 111 -1 69 12 106 44 121 35 18 102 9 127 -15z m-26 -169
c-6 -6 -15 -8 -19 -4 -4 4 -1 11 7 16 8 5 17 7 19 4 3 -2 -1 -10 -7 -16z"/>
<path d="M1870 4379 c0 -5 5 -7 10 -4 6 3 10 8 10 11 0 2 -4 4 -10 4 -5 0 -10
-5 -10 -11z"/>
<path d="M8466 4079 c-3 -17 -6 -69 -6 -115 0 -52 -4 -84 -10 -84 -21 0 -68
30 -88 55 -11 14 -25 25 -31 25 -23 0 -61 -33 -61 -52 0 -17 45 -106 60 -118
4 -3 21 -32 40 -65 19 -33 51 -84 72 -113 l39 -53 41 23 c22 13 43 28 45 35 3
6 -13 42 -35 80 -22 37 -39 69 -38 70 2 2 55 -7 118 -19 l116 -21 33 38 c19
21 34 43 34 48 0 6 -51 25 -113 43 -62 17 -119 37 -127 44 -10 8 -15 39 -17
108 l-3 97 -31 3 c-28 3 -32 0 -38 -29z"/>
<path d="M8048 3777 c-21 -12 -38 -25 -38 -28 0 -3 18 -39 41 -80 23 -41 61
-110 86 -154 24 -44 52 -91 63 -105 l19 -25 33 19 c56 32 178 128 178 140 -1
6 -9 21 -20 34 -15 18 -23 21 -37 12 -48 -27 -117 -50 -126 -41 -5 5 -40 62
-77 127 -37 65 -71 119 -76 121 -5 1 -26 -8 -46 -20z"/>
<path d="M7816 3623 c-28 -15 -28 -16 -23 -92 8 -146 31 -371 37 -368 3 2 27
13 54 26 l48 23 -6 49 c-6 47 -5 50 21 61 15 7 36 18 45 26 16 13 21 11 50
-17 17 -17 37 -31 43 -31 16 0 78 42 82 57 2 6 -22 30 -54 53 -32 22 -104 84
-160 136 -56 51 -103 94 -105 93 -2 -1 -16 -8 -32 -16z m109 -183 c18 -35 19
-40 2 -40 -13 0 -39 55 -29 64 9 9 11 8 27 -24z"/>
<path d="M7503 3470 c-79 -39 -143 -75 -143 -82 0 -17 38 -78 48 -78 4 0 25 9
47 20 48 25 61 25 68 3 18 -56 107 -258 115 -261 10 -3 92 43 92 52 0 1 -6 16
-14 32 -27 56 -96 235 -96 248 0 8 16 24 35 36 19 12 35 25 35 29 0 22 -23 71
-33 71 -7 -1 -76 -32 -154 -70z"/>
<path d="M7127 3218 c-31 -62 -59 -125 -62 -140 -4 -16 -9 -28 -12 -28 -6 0
-171 138 -178 150 -3 6 -17 10 -31 10 -28 0 -30 -17 -13 -90 13 -57 50 -253
56 -303 4 -29 9 -37 22 -33 9 3 30 8 46 12 43 10 46 13 36 33 -6 10 -12 46
-16 81 l-6 63 38 -28 c21 -15 46 -36 55 -47 10 -11 22 -16 28 -13 11 7 60 106
74 148 7 20 26 14 26 -9 0 -15 36 -124 44 -131 2 -3 24 4 49 15 l44 20 -24 88
c-63 228 -91 309 -106 312 -10 2 -32 -32 -70 -110z"/>
<path d="M6573 3128 c-13 -17 -118 -436 -112 -443 13 -12 94 22 105 44 18 35
26 40 94 58 l63 16 26 -32 c25 -30 27 -31 68 -18 23 7 44 15 48 18 5 6 -27 56
-114 179 -17 25 -53 78 -79 117 -47 74 -76 91 -99 61z m81 -213 c22 -34 20
-42 -11 -48 -36 -7 -45 2 -37 41 8 38 26 41 48 7z"/>
<path d="M6327 3094 c-1 -2 -55 -8 -118 -15 l-115 -12 18 -176 c24 -245 23
-241 56 -241 29 0 174 16 230 26 32 5 33 7 30 47 l-3 42 -97 -3 -98 -2 0 29
c0 29 1 29 86 41 l85 12 -3 42 -3 41 -40 -3 c-22 -2 -59 -8 -83 -13 -52 -11
-62 -6 -62 30 0 27 2 28 91 43 50 9 92 18 93 20 1 2 1 24 -2 50 -4 44 -6 47
-33 46 -16 -1 -30 -2 -32 -4z"/>
<path d="M5735 3038 c-2 -7 -5 -104 -7 -215 l-4 -203 47 0 47 0 13 69 c10 56
16 70 33 75 31 9 36 7 36 -9 0 -18 42 -108 55 -117 9 -7 105 0 114 8 2 2 -1
14 -7 27 -35 70 -60 137 -51 142 5 4 19 24 30 47 38 74 2 155 -78 177 -55 16
-223 14 -228 -1z m189 -94 c19 -7 21 -45 4 -62 -11 -11 -89 -17 -99 -7 -3 2
-3 20 -1 40 4 33 6 35 42 35 21 0 45 -3 54 -6z"/>
<path d="M5692 2760 c0 -14 2 -19 5 -12 2 6 2 18 0 25 -3 6 -5 1 -5 -13z"/>
</g>
</svg>
